<svg width="267" height="249" viewBox="0 0 267 249" fill="none" xmlns="http://www.w3.org/2000/svg">
<path d="M195.206 143.86C190.953 150.156 185.805 155.81 179.925 160.644C168.696 170.485 154.339 176.042 139.454 176.308C114.381 176.292 89.6483 161.987 69.1021 149.341C59.5956 143.473 50.8569 136.514 41.1747 130.971C31.761 125.675 21.9064 121.181 11.7157 117.538C7.97338 116.193 4.2499 114.93 0.489819 113.659C3.62962 110.439 7.4336 107.936 11.6338 106.325C26.5719 106.214 81.3859 127.288 95.477 125.193C99.756 124.364 103.908 122.961 107.818 121.02C118.675 115.797 129.165 109.838 139.212 103.185L141.005 102.079C142.071 102.39 143.11 102.785 144.113 103.258C151.509 106.465 161.042 113.493 169.852 120.872C183.326 131.906 195.206 143.86 195.206 143.86Z" fill="white"/>
<path d="M142.605 201.038C113.593 201.748 104.468 192.179 105.158 188.877C105.847 185.574 114.233 184.489 114.233 184.489C116.658 180.215 120.271 176.719 124.634 174.426C125.974 173.601 127.001 173.184 127.001 173.184C127.001 173.184 150.094 169.377 153.94 170.534C155.317 171.135 156.528 172.053 157.472 173.215C160.141 176.329 162.541 179.662 164.648 183.18C164.648 183.18 173.236 183.796 174.923 186.531C176.609 189.267 171.658 200.395 142.605 201.038Z" fill="white"/>
<path d="M149.732 94.5339C148.552 97.7742 146.59 100.684 144.02 103.006C143.279 103.747 142.497 104.446 141.677 105.1C140.765 104.449 139.91 103.724 139.119 102.932C135.477 99.7914 133.145 95.4108 132.57 90.6312C132.169 82.1529 137.54 71.0446 140.902 70.7049C144.264 70.3653 151.474 88.9735 149.732 94.5339Z" fill="white"/>
<path d="M201.26 103.213C189.438 107.158 189.78 142.223 189.78 142.223C189.78 142.223 185.969 152.864 195.156 143.829C204.342 134.793 249.423 126.406 248.829 109.228C248.234 92.0499 213.092 99.2307 201.26 103.213ZM194.002 139.62C194.002 139.62 195.184 111.043 203.945 108.737C212.705 106.431 237.991 103.438 239.865 111.102C241.738 118.766 198.123 134.666 194.002 139.62Z" fill="white"/>
<path opacity="0.2" d="M164.645 183.274C157.069 185.993 149.102 187.432 141.077 187.529C132.012 187.822 122.965 186.836 114.207 184.598C116.632 180.323 120.245 176.828 124.608 174.535C128.927 174.782 147.245 175.682 157.259 173.377L157.373 173.307C160.075 176.418 162.507 179.753 164.645 183.274Z" fill="black"/>
<path opacity="0.2" d="M169.814 120.709C142.569 130.232 117.421 123.64 107.78 120.857C118.637 115.635 129.127 109.675 139.174 103.022C135.532 99.881 133.2 95.5004 132.625 90.7208C132.223 82.2424 137.594 71.1341 140.956 70.7945C144.319 70.4548 151.515 89.0407 149.787 94.6235C148.607 97.8638 146.645 100.774 144.075 103.095C151.472 106.302 160.936 113.372 169.814 120.709Z" fill="black"/>
</svg>
